<svg width="101" height="109" viewBox="0 0 101 109" fill="none" xmlns="http://www.w3.org/2000/svg">
<path d="M72.1562 28.7917C72.1562 25.6678 69.6238 23.1354 66.5 23.1354C63.3761 23.1354 60.8437 25.6678 60.8437 28.7917V66.5C60.8437 68.4502 61.8484 70.2629 63.5022 71.2965L86.1272 85.4371C88.7762 87.0928 92.2658 86.2875 93.9215 83.6384C95.5771 80.9894 94.7718 77.4998 92.1228 75.8441L72.1562 63.3651V28.7917Z" fill="#FFD84E"/>
<path fill-rule="evenodd" clip-rule="evenodd" d="M66.5 0.510437C30.0549 0.510437 0.510406 30.055 0.510406 66.5C0.510406 102.945 30.0549 132.49 66.5 132.49C102.945 132.49 132.49 102.945 132.49 66.5C132.49 30.055 102.945 0.510437 66.5 0.510437ZM11.8229 66.5C11.8229 36.3027 36.3027 11.8229 66.5 11.8229C96.6973 11.8229 121.177 36.3027 121.177 66.5C121.177 96.6973 96.6973 121.177 66.5 121.177C36.3027 121.177 11.8229 96.6973 11.8229 66.5Z" fill="#FFD84E"/>
</svg>
