<svg width="101" height="111" viewBox="0 0 101 111" fill="none" xmlns="http://www.w3.org/2000/svg">
<path d="M50.5834 82.823C53.6727 82.823 56.1771 85.3274 56.1771 88.4167V103.333C56.1771 106.423 53.6727 108.927 50.5834 108.927C47.494 108.927 44.9896 106.423 44.9896 103.333V88.4167C44.9896 85.3274 47.494 82.823 50.5834 82.823Z" fill="#FFD84E"/>
<path d="M86.0105 88.4167C86.0105 85.3274 83.506 82.823 80.4167 82.823C77.3274 82.823 74.823 85.3274 74.823 88.4167V103.333C74.823 106.423 77.3274 108.927 80.4167 108.927C83.5061 108.927 86.0105 106.423 86.0105 103.333V88.4167Z" fill="#FFD84E"/>
<path fill-rule="evenodd" clip-rule="evenodd" d="M47.9694 9.1719C49.514 6.49644 48.5973 3.07536 45.9219 1.53069C43.2465 -0.0139826 39.8254 0.902694 38.2807 3.57814L23.364 29.4146C23.1406 29.8016 22.9686 30.2043 22.846 30.6146H20.75C9.42245 30.6146 0.239624 39.7974 0.239624 51.125C0.239624 57.5327 3.17796 63.2541 7.7807 67.0153L12.755 101.209L16.0869 116.821C18.0833 126.174 25.719 133.279 35.1921 134.597C55.3005 137.395 75.6996 137.395 95.808 134.597C105.281 133.279 112.917 126.174 114.913 116.821L118.245 101.209L123.219 67.0153C127.822 63.2541 130.76 57.5327 130.76 51.125C130.76 39.7974 121.578 30.6146 110.25 30.6146H108.154C108.031 30.2043 107.86 29.8016 107.636 29.4146L92.7194 3.57814C91.1747 0.902694 87.7536 -0.0139826 85.0782 1.53069C82.4027 3.07536 81.4861 6.49644 83.0307 9.1719L95.4107 30.6146H35.5894L47.9694 9.1719ZM111.245 71.6117C110.916 71.6275 110.584 71.6355 110.25 71.6355H20.75C20.4163 71.6355 20.0844 71.6275 19.7546 71.6117L23.7729 99.2345L27.028 114.486C28.0422 119.238 31.9213 122.847 36.7339 123.517C55.8194 126.172 75.1807 126.172 94.2662 123.517C99.0788 122.847 102.958 119.238 103.972 114.486L107.227 99.2345L111.245 71.6117ZM11.4271 51.125C11.4271 45.9761 15.6011 41.8021 20.75 41.8021H110.25C115.399 41.8021 119.573 45.9761 119.573 51.125C119.573 56.2739 115.399 60.448 110.25 60.448H20.75C15.6011 60.448 11.4271 56.2739 11.4271 51.125Z" fill="#FFD84E"/>
</svg>
