<svg width="107" height="107" viewBox="0 0 107 107" fill="none" xmlns="http://www.w3.org/2000/svg">
<path fill-rule="evenodd" clip-rule="evenodd" d="M62.1432 7.22784C67.4261 -1.87658 80.5739 -1.87655 85.8568 7.22785L102.035 35.1095C103.527 37.6795 106.104 39.4333 109.042 39.8771L135.908 43.9348C147.619 45.7035 151.726 60.4895 142.606 68.0455L123.031 84.263C120.284 86.5392 118.992 90.1297 119.66 93.6347L125.143 122.43C127.291 133.709 115.45 142.473 105.29 137.124L78.562 123.05C75.7065 121.547 72.2935 121.547 69.438 123.05L42.7104 137.124C32.5505 142.473 20.7094 133.709 22.8573 122.43L28.3405 93.6347C29.0079 90.1298 27.7161 86.5392 24.9686 84.263L5.39385 68.0455C-3.72637 60.4895 0.381454 45.7035 12.0922 43.9348L38.9578 39.8771C41.8958 39.4333 44.4734 37.6795 45.9646 35.1095L62.1432 7.22784ZM75.6938 13.125C74.9391 11.8244 73.0609 11.8244 72.3062 13.125L56.1276 41.0067C52.8468 46.6606 47.1762 50.519 40.7126 51.4953L13.847 55.553C12.1741 55.8057 11.5872 57.918 12.8901 58.9974L32.4649 75.2149C38.5093 80.2226 41.3514 88.1218 39.8831 95.8326L34.3999 124.628C34.0931 126.239 35.7847 127.491 37.2361 126.727L63.9637 112.654C70.2458 109.346 77.7543 109.346 84.0363 112.654L110.764 126.727C112.215 127.491 113.907 126.239 113.6 124.628L108.117 95.8326C106.649 88.1218 109.491 80.2226 115.535 75.2149L135.11 58.9974C136.413 57.9179 135.826 55.8057 134.153 55.553L107.287 51.4953C100.824 50.519 95.1532 46.6606 91.8724 41.0067L75.6938 13.125Z" fill="#FFD84E"/>
</svg>
