<svg width="24" height="23" viewBox="0 0 24 23" fill="none" xmlns="http://www.w3.org/2000/svg">
<path d="M16.6667 5.51727C16.6667 4.87293 17.189 4.3506 17.8333 4.3506C18.4777 4.3506 19 4.87293 19 5.51727C19 6.1616 18.4777 6.68393 17.8333 6.68393C17.189 6.68393 16.6667 6.1616 16.6667 5.51727Z" fill="white"/>
<path fill-rule="evenodd" clip-rule="evenodd" d="M12 5.80893C8.93943 5.80893 6.45834 8.29002 6.45834 11.3506C6.45834 14.4112 8.93943 16.8923 12 16.8923C15.0606 16.8923 17.5417 14.4112 17.5417 11.3506C17.5417 8.29002 15.0606 5.80893 12 5.80893ZM8.20834 11.3506C8.20834 9.25652 9.90593 7.55893 12 7.55893C14.0941 7.55893 15.7917 9.25652 15.7917 11.3506C15.7917 13.4447 14.0941 15.1423 12 15.1423C9.90593 15.1423 8.20834 13.4447 8.20834 11.3506Z" fill="white"/>
<path fill-rule="evenodd" clip-rule="evenodd" d="M18.1346 0.655783C14.0903 0.203769 9.90975 0.203769 5.86541 0.655783C3.51801 0.91814 1.62295 2.76732 1.34697 5.12693C0.863346 9.26195 0.863346 13.4392 1.34697 17.5743C1.62295 19.9339 3.51801 21.7831 5.86541 22.0454C9.90975 22.4974 14.0903 22.4974 18.1346 22.0454C20.482 21.7831 22.3771 19.9339 22.6531 17.5743C23.1367 13.4392 23.1367 9.26195 22.6531 5.12693C22.3771 2.76732 20.482 0.91814 18.1346 0.655783ZM6.05978 2.39495C9.97494 1.95738 14.0251 1.95738 17.9403 2.39495C19.4921 2.56839 20.7351 3.79294 20.9149 5.33023C21.3828 9.33018 21.3828 13.371 20.9149 17.371C20.7351 18.9083 19.4921 20.1328 17.9403 20.3062C14.0251 20.7438 9.97494 20.7438 6.05979 20.3062C4.50799 20.1328 3.26493 18.9083 3.08513 17.371C2.6173 13.371 2.6173 9.33018 3.08513 5.33023C3.26493 3.79294 4.50799 2.56839 6.05978 2.39495Z" fill="white"/>
</svg>
