<svg width="25" height="21" viewBox="0 0 25 21" fill="none" xmlns="http://www.w3.org/2000/svg">
<path fill-rule="evenodd" clip-rule="evenodd" d="M5.75225 12.7068C5.80332 12.724 5.85486 12.7362 5.90636 12.7437C5.96252 12.8756 6.03508 13.0464 6.11973 13.246C6.32632 13.7332 6.60467 14.3922 6.89199 15.0797C7.47794 16.4816 8.069 17.9268 8.19953 18.3405C8.36112 18.8518 8.53194 19.1995 8.71841 19.4369C8.81483 19.5596 8.92634 19.6668 9.05683 19.7479C9.12251 19.7888 9.19189 19.8223 9.26432 19.8472C9.26751 19.8483 9.2707 19.8494 9.27388 19.8505C9.64724 19.9914 9.98762 19.9327 10.2007 19.8609C10.3148 19.8225 10.407 19.7761 10.4724 19.7385C10.5058 19.7194 10.5339 19.7015 10.5564 19.6864L10.5617 19.6828L13.859 17.6266L17.6676 20.5465C17.7238 20.5896 17.785 20.6257 17.85 20.6541C18.3075 20.8537 18.7506 20.9234 19.1674 20.8664C19.5835 20.8096 19.9138 20.6348 20.1597 20.4381C20.4006 20.2454 20.5638 20.0296 20.6655 19.8693C20.7174 19.7874 20.7564 19.715 20.7839 19.6595C20.7977 19.6316 20.8088 19.6076 20.8174 19.5883L20.8284 19.5629L20.8325 19.5529L20.8342 19.5486L20.835 19.5467L20.8358 19.5448C20.8558 19.4948 20.8711 19.443 20.8816 19.3902L24.3585 1.86041C24.3697 1.80435 24.3753 1.74733 24.3753 1.69017C24.3753 1.17682 24.1818 0.688689 23.727 0.39248C23.3383 0.139316 22.9053 0.128419 22.6316 0.149191C22.3364 0.171599 22.0637 0.244478 21.8808 0.302713C21.7856 0.33302 21.7057 0.362261 21.6482 0.384569C21.6192 0.395781 21.5955 0.4054 21.5779 0.412736L21.5646 0.418321L2.06525 8.06762L2.06273 8.06853C2.0503 8.07305 2.03434 8.07901 2.01538 8.08639C1.97763 8.10109 1.92704 8.1218 1.86794 8.14858C1.75269 8.20082 1.59102 8.28245 1.42511 8.39606C1.16005 8.57757 0.550483 9.07469 0.653127 9.89521C0.735014 10.5498 1.18346 10.9518 1.45668 11.1451C1.6067 11.2513 1.74923 11.3272 1.85303 11.3766C1.90118 11.3995 2.00116 11.4402 2.04454 11.4578L2.05549 11.4622L5.75225 12.7068ZM22.247 2.02972L22.2443 2.0309C22.2346 2.03512 22.2248 2.03917 22.2149 2.04303L2.69192 9.70162C2.68173 9.70562 2.67146 9.70943 2.66112 9.71305L2.65026 9.71717C2.63777 9.72203 2.61674 9.73056 2.59035 9.74252C2.57538 9.7493 2.55976 9.75671 2.54384 9.76465C2.56572 9.77697 2.58666 9.78768 2.60526 9.79653C2.62312 9.80504 2.63675 9.81085 2.6442 9.81391L6.31061 11.0482C6.37771 11.0708 6.44027 11.1008 6.4977 11.1368L18.6039 4.04994L18.6152 4.04324C18.6241 4.03803 18.6357 4.03133 18.6495 4.02348C18.6771 4.00791 18.715 3.98717 18.76 3.96425C18.844 3.92149 18.9784 3.85801 19.1299 3.81121C19.2353 3.77862 19.5462 3.68682 19.8823 3.79462C20.0898 3.86116 20.3045 4.0042 20.4442 4.24653C20.5136 4.36691 20.5506 4.48785 20.5685 4.59855C20.6161 4.77295 20.6085 4.94515 20.5713 5.09383C20.4911 5.41409 20.2661 5.6639 20.0613 5.85497C19.886 6.01879 17.6163 8.20728 15.3773 10.3677C14.2608 11.445 13.1556 12.5118 12.3295 13.3091L11.787 13.8329L18.6376 19.0851C18.7947 19.1413 18.8876 19.1384 18.9305 19.1325C18.9817 19.1256 19.0236 19.1059 19.0664 19.0716C19.1143 19.0333 19.1562 18.9816 19.1875 18.9323L19.1887 18.9302L22.561 1.9284C22.5109 1.94043 22.4603 1.95475 22.4115 1.97028C22.3563 1.98786 22.3108 2.00461 22.2806 2.01631C22.2656 2.02211 22.2548 2.0265 22.249 2.02893L22.247 2.02972ZM12.3755 16.4893L11.0088 15.4414L10.6776 17.5481L12.3755 16.4893ZM9.75499 13.3622L11.1141 12.0501C11.9402 11.2526 13.0455 10.1858 14.1622 9.10833L15.2968 8.01372L7.69007 12.4666L7.73089 12.5629C7.93821 13.0518 8.2178 13.7137 8.50665 14.4048C8.72263 14.9216 8.94848 15.4657 9.1542 15.9695L9.4844 13.869C9.51624 13.6665 9.61517 13.4912 9.75499 13.3622Z" fill="white"/>
</svg>
