<svg width="28" height="19" viewBox="0 0 28 19" fill="none" xmlns="http://www.w3.org/2000/svg">
<path fill-rule="evenodd" clip-rule="evenodd" d="M27.3057 15.0264C26.6712 13.7483 25.8351 12.5808 24.8296 11.5687C24.4874 11.1709 24.0861 10.7783 23.7729 10.4719L23.7291 10.4291C23.5676 10.271 23.4341 10.1397 23.3248 10.0266C24.6998 8.11475 25.8766 6.06748 26.8368 3.91647L26.8755 3.82968L26.9027 3.7386C27.0289 3.31522 27.1742 2.51015 26.66 1.78258C26.1286 1.03057 25.2776 0.894944 24.7079 0.894944H22.0863C21.5397 0.869888 20.9986 1.01764 20.54 1.31802C20.0781 1.62067 19.7246 2.06212 19.5302 2.57816C18.9656 3.92297 18.2592 5.20211 17.4238 6.39419V3.32202C17.4238 2.92489 17.3864 2.26059 16.9612 1.69989C16.4521 1.02854 15.7158 0.894944 15.2047 0.894944H11.0449C10.509 0.882549 9.98772 1.07418 9.58716 1.4319C9.17695 1.79824 8.92556 2.30995 8.88631 2.85855L8.88259 2.91052V2.96262C8.88259 3.52901 9.10703 3.9468 9.28633 4.20956C9.36661 4.3272 9.45247 4.43428 9.50671 4.50192L9.51923 4.51753C9.57707 4.58965 9.61567 4.63778 9.65442 4.69048C9.75633 4.8291 9.90291 5.04284 9.94438 5.5959V7.31436C9.22724 6.13548 8.47073 4.5667 7.90151 2.89122L7.89278 2.86551L7.88309 2.84014C7.74116 2.46842 7.51352 1.92755 7.0576 1.51365C6.52498 1.03013 5.89501 0.894944 5.32208 0.894944H2.66215C2.08253 0.894944 1.38378 1.03054 0.862402 1.58054C0.349694 2.12139 0.291626 2.76946 0.291626 3.11404V3.26936L0.324338 3.42119C1.06109 6.84082 2.57918 10.0432 4.75933 12.7778C5.74775 14.3366 7.08709 15.6431 8.67078 16.5927C10.2797 17.5574 12.0949 18.1261 13.9667 18.2519L14.0155 18.2552H14.0645C14.9113 18.2552 15.794 18.1821 16.4579 17.7397C17.3534 17.1429 17.4238 16.2264 17.4238 15.7697V14.4421C17.6536 14.6279 17.9388 14.878 18.2878 15.214C18.7098 15.6365 19.0457 16.0024 19.334 16.3218L19.4878 16.4928L19.4887 16.4938C19.7124 16.743 19.9327 16.9883 20.1333 17.1899C20.3854 17.4434 20.6962 17.7226 21.0869 17.9289C21.5099 18.1523 21.954 18.2533 22.4256 18.2533H25.0873C25.6481 18.2533 26.4524 18.1207 27.0178 17.4652C27.6341 16.7507 27.587 15.875 27.3933 15.2457L27.3584 15.1325L27.3057 15.0264ZM20.6333 15.1496C20.3337 14.8174 19.9723 14.4237 19.5158 13.9671L19.512 13.9634C17.9299 12.4381 17.1906 12.1723 16.6678 12.1723C16.3899 12.1723 16.0822 12.2035 15.8826 12.4522C15.7884 12.5695 15.7389 12.7111 15.7111 12.8587C15.6834 13.0061 15.6738 13.1791 15.6738 13.3761V15.7697C15.6738 16.067 15.6249 16.1918 15.4874 16.2834C15.3043 16.4055 14.9129 16.5044 14.0743 16.5052C12.4825 16.3966 10.9391 15.9123 9.5707 15.0918C8.19949 14.2696 7.04323 13.1335 6.19714 11.7769L6.18793 11.7621L6.17704 11.7486C4.14556 9.22003 2.72999 6.25388 2.04198 3.08449C2.04571 2.93171 2.07881 2.84106 2.13244 2.78449C2.1877 2.72619 2.32161 2.64494 2.66215 2.64494H5.32208C5.61798 2.64494 5.77111 2.70931 5.88132 2.80936C6.00627 2.92279 6.11464 3.11542 6.2463 3.45937C6.89918 5.37968 7.78207 7.1755 8.61813 8.49598C9.03601 9.15598 9.44726 9.70532 9.8178 10.0935C10.0028 10.2873 10.1842 10.4479 10.3573 10.5621C10.5248 10.6726 10.7148 10.7597 10.9101 10.7597C11.0132 10.7597 11.1338 10.7491 11.2499 10.6977C11.3748 10.6425 11.4717 10.5503 11.5401 10.4268C11.6612 10.2084 11.6944 9.88485 11.6944 9.46103V5.5367L11.6938 5.52749C11.6333 4.57276 11.3451 4.03572 11.0644 3.65393C11.0029 3.57025 10.9422 3.49467 10.8891 3.42854L10.8746 3.41041C10.8163 3.33773 10.77 3.279 10.7318 3.22315C10.662 3.12083 10.635 3.04948 10.6327 2.97303C10.6418 2.88229 10.6846 2.79808 10.7528 2.73717C10.8236 2.67393 10.9163 2.64101 11.0111 2.64494H15.2047C15.4451 2.64494 15.5261 2.70361 15.5668 2.75734C15.6244 2.8332 15.6738 2.99096 15.6738 3.32202V8.6054C15.6738 9.23299 15.9631 9.65783 16.3832 9.65783C16.8667 9.65783 17.2152 9.36449 17.8246 8.75508L17.8348 8.74491L17.8439 8.73378C19.2098 7.06803 20.3262 5.21236 21.1571 3.22489L21.1624 3.20998C21.2249 3.03436 21.3431 2.88401 21.499 2.78186C21.655 2.67972 21.84 2.63139 22.026 2.64425L22.036 2.64494H24.7079C25.0722 2.64494 25.1921 2.73768 25.2309 2.79252C25.2721 2.85087 25.3008 2.97593 25.2307 3.22117C24.2728 5.36364 23.0881 7.3973 21.6977 9.28797L21.6889 9.30136C21.5539 9.50779 21.4058 9.7362 21.3844 9.9985C21.3614 10.2801 21.4833 10.5362 21.6965 10.8106C21.8519 11.0404 22.1724 11.3541 22.4975 11.6723L22.5282 11.7023C22.869 12.036 23.2383 12.3974 23.5348 12.7474L23.5427 12.7567L23.5514 12.7653C24.4351 13.6468 25.17 14.6658 25.7273 15.7826C25.8163 16.0866 25.7618 16.242 25.6927 16.3222C25.6117 16.416 25.4305 16.5033 25.0873 16.5033H22.4256C22.2178 16.5033 22.0573 16.4624 21.904 16.3814C21.7443 16.2971 21.58 16.1629 21.374 15.9558C21.2081 15.789 21.0268 15.5872 20.8056 15.3411C20.7508 15.2801 20.6934 15.2162 20.6333 15.1496Z" fill="white"/>
</svg>
