<svg width="26" height="19" viewBox="0 0 26 19" fill="none" xmlns="http://www.w3.org/2000/svg">
<path fill-rule="evenodd" clip-rule="evenodd" d="M11.1168 5.10023C10.8465 4.93805 10.5099 4.9338 10.2355 5.08912C9.96122 5.24443 9.79165 5.5353 9.79165 5.85054V12.8505C9.79165 13.1658 9.96122 13.4566 10.2355 13.612C10.5099 13.7673 10.8465 13.763 11.1168 13.6008L16.9502 10.1008C17.2137 9.94271 17.375 9.65789 17.375 9.35054C17.375 9.04319 17.2137 8.75837 16.9502 8.60023L11.1168 5.10023ZM14.7993 9.35054L11.5416 11.3051V7.39596L14.7993 9.35054Z" fill="white"/>
<path fill-rule="evenodd" clip-rule="evenodd" d="M18.8691 0.765368C14.9623 0.459721 11.0377 0.459721 7.13093 0.765368L4.51678 0.969886C2.92711 1.09425 1.62665 2.28566 1.36387 3.85838C0.756314 7.49461 0.756314 11.2065 1.36387 14.8427C1.62665 16.4154 2.92711 17.6068 4.51678 17.7312L7.13093 17.9357C11.0377 18.2414 14.9623 18.2414 18.8691 17.9357L21.4833 17.7312C23.0729 17.6068 24.3734 16.4154 24.6362 14.8427C25.2437 11.2065 25.2437 7.49461 24.6362 3.85838C24.3734 2.28566 23.0729 1.09425 21.4833 0.969886L18.8691 0.765368ZM7.26742 2.51004C11.0833 2.2115 14.9167 2.2115 18.7326 2.51004L21.3468 2.71456C22.135 2.77622 22.7798 3.36696 22.9101 4.14678C23.4857 7.59207 23.4857 11.109 22.9101 14.5543C22.7798 15.3341 22.135 15.9249 21.3468 15.9865L18.7326 16.191C14.9167 16.4896 11.0833 16.4896 7.26742 16.191L4.65327 15.9865C3.86506 15.9249 3.22024 15.3341 3.08994 14.5543C2.51429 11.109 2.51429 7.59207 3.08994 4.14678C3.22024 3.36696 3.86506 2.77622 4.65327 2.71456L7.26742 2.51004Z" fill="white"/>
</svg>
